<?xml version="1.0" encoding="UTF-8" standalone="no"?>
<!-- Created with Inkscape (http://www.inkscape.org/) -->

<svg
   width="128"
   height="128"
   viewBox="0 0 33.866666 33.866666"
   version="1.1"
   id="svg5"
   xml:space="preserve"
   inkscape:export-filename="icon.png"
   inkscape:export-xdpi="96"
   inkscape:export-ydpi="96"
   inkscape:version="1.2.1 (9c6d41e410, 2022-07-14)"
   sodipodi:docname="icon.svg"
   xmlns:inkscape="http://www.inkscape.org/namespaces/inkscape"
   xmlns:sodipodi="http://sodipodi.sourceforge.net/DTD/sodipodi-0.dtd"
   xmlns="http://www.w3.org/2000/svg"
   xmlns:svg="http://www.w3.org/2000/svg"
   xmlns:rdf="http://www.w3.org/1999/02/22-rdf-syntax-ns#"
   xmlns:cc="http://creativecommons.org/ns#"><sodipodi:namedview
     id="namedview7"
     pagecolor="#ffffff"
     bordercolor="#000000"
     borderopacity="0.25"
     inkscape:showpageshadow="2"
     inkscape:pageopacity="0.0"
     inkscape:pagecheckerboard="0"
     inkscape:deskcolor="#d1d1d1"
     inkscape:document-units="mm"
     showgrid="false"
     inkscape:zoom="1.4142136"
     inkscape:cx="-248.54803"
     inkscape:cy="-191.97949"
     inkscape:window-width="1920"
     inkscape:window-height="1051"
     inkscape:window-x="-9"
     inkscape:window-y="-9"
     inkscape:window-maximized="1"
     inkscape:current-layer="layer1" /><defs
     id="defs2" /><g
     inkscape:label="Layer 1"
     inkscape:groupmode="layer"
     id="layer1"><rect
       style="fill:#1e1e1e;fill-opacity:1;fill-rule:evenodd;stroke:none;stroke-width:0;stroke-linecap:round"
       id="rect2362"
       width="33.866665"
       height="33.866665"
       x="8.9009603e-07"
       y="8.9009603e-07" /><text
       xml:space="preserve"
       style="font-size:7.05556px;fill:#b2b3b4;fill-opacity:1;fill-rule:evenodd;stroke:none;stroke-width:0;stroke-linecap:round"
       x="3.9556508"
       y="14.949315"
       id="text2729"><tspan
         sodipodi:role="line"
         id="tspan2727"
         style="font-style:normal;font-variant:normal;font-weight:normal;font-stretch:normal;font-size:7.05556px;font-family:Impact;-inkscape-font-specification:Impact;fill:#b2b3b4;fill-opacity:1;stroke-width:0"
         x="3.9556508"
         y="14.949315">Read</tspan><tspan
         sodipodi:role="line"
         style="font-style:normal;font-variant:normal;font-weight:normal;font-stretch:normal;font-size:7.05556px;font-family:Impact;-inkscape-font-specification:Impact;fill:#b2b3b4;fill-opacity:1;stroke-width:0"
         x="3.9556508"
         y="24.412283"
         id="tspan4858">ReadMe</tspan><tspan
         sodipodi:role="line"
         style="font-style:normal;font-variant:normal;font-weight:normal;font-stretch:normal;font-size:7.05556px;font-family:Impact;-inkscape-font-specification:Impact;fill:#b2b3b4;fill-opacity:1;stroke-width:0"
         x="3.9556508"
         y="33.231731"
         id="tspan4854" /></text><path
       id="path5003"
       style="fill:#82807d;fill-opacity:1;fill-rule:evenodd;stroke:#0800ff;stroke-width:0;stroke-linecap:round;stroke-opacity:1"
       inkscape:transform-center-x="-0.00037462251"
       inkscape:transform-center-y="-7.5055113e-06"
       d="m 25.750001,8.8612628 -0.43165,0.693831 -0.43005,-0.692841 a 3.3072921,3.321679 0 0 0 -1.20566,0.404745 l 0.11164,0.8528132 -0.85091,-0.2763932 a 3.3072921,3.321679 0 0 0 -0.68,1.0383172 l 0.71936,0.669665 -0.96612,0.404749 a 3.3072921,3.321679 0 0 0 -0.007,0.198042 3.3072921,3.321679 0 0 0 0.1469,0.97866 l 1.10732,0.04719 -0.53539,1.041432 a 3.3072921,3.321679 0 0 0 0.84613,0.753336 l 0.93094,-0.731145 0.25359,1.182706 a 3.3072921,3.321679 0 0 0 0.5578,0.04947 3.3072921,3.321679 0 0 0 0.55537,-0.04902 l 0.25481,-1.182326 0.92972,0.731905 a 3.3072921,3.321679 0 0 0 0.84696,-0.752804 l -0.53394,-1.041356 1.10641,-0.0459 a 3.3072921,3.321679 0 0 0 0.14796,-0.982156 3.3072921,3.321679 0 0 0 -0.006,-0.194319 l -0.96604,-0.405964 0.72066,-0.669437 a 3.3072921,3.321679 0 0 0 -0.67818,-1.0389252 l -0.85251,0.2759372 0.11255,-0.8529652 a 3.3072921,3.321679 0 0 0 -1.20437,-0.407257 z m -0.43347,1.3618252 a 1.9454658,1.9454656 0 0 1 1.94547,1.945466 1.9454658,1.9454656 0 0 1 -1.94547,1.945466 1.9454658,1.9454656 0 0 1 -1.94547,-1.945466 1.9454658,1.9454656 0 0 1 1.94547,-1.945466 z" /></g><metadata
     id="metadata1049"><rdf:RDF><cc:Work
         rdf:about=""><cc:license
           rdf:resource="http://creativecommons.org/licenses/by-sa/4.0/" /></cc:Work><cc:License
         rdf:about="http://creativecommons.org/licenses/by-sa/4.0/"><cc:permits
           rdf:resource="http://creativecommons.org/ns#Reproduction" /><cc:permits
           rdf:resource="http://creativecommons.org/ns#Distribution" /><cc:requires
           rdf:resource="http://creativecommons.org/ns#Notice" /><cc:requires
           rdf:resource="http://creativecommons.org/ns#Attribution" /><cc:permits
           rdf:resource="http://creativecommons.org/ns#DerivativeWorks" /><cc:requires
           rdf:resource="http://creativecommons.org/ns#ShareAlike" /></cc:License></rdf:RDF></metadata></svg>
